<?xml version="1.0" encoding="UTF-8"?>
<svg width="200" height="400" viewBox="0 0 200 400" xmlns="http://www.w3.org/2000/svg">
  <!-- Body outline -->
  <path d="M100 20 C85 20, 70 35, 70 50 
           L70 70 L65 90 L60 110 L65 130 L70 150 
           L70 200 L75 250 L80 300 L85 340 L90 380 
           L110 380 L115 340 L120 300 L125 250 L130 200 
           L130 150 L135 130 L140 110 L135 90 L130 70 
           L130 50 C130 35, 115 20, 100 20 Z" 
        fill="#f8f9fa" stroke="#dee2e6" stroke-width="1"/>
  
  <!-- Head -->
  <circle cx="100" cy="35" r="15" fill="#f8f9fa" stroke="#dee2e6" stroke-width="1"/>
  
  <!-- Back -->
  <g id="back">
    <path d="M80 55 C80 55, 90 50, 100 52 C110 50, 120 55, 120 55
             C120 95, 115 135, 100 140 C85 135, 80 95, 80 55 Z" 
          fill="transparent" stroke="transparent"/>
  </g>
  
  <!-- Shoulders -->
  <g id="shoulders">
    <ellipse cx="60" cy="65" rx="15" ry="20" fill="transparent" stroke="transparent"/>
    <ellipse cx="140" cy="65" rx="15" ry="20" fill="transparent" stroke="transparent"/>
  </g>
  
  <!-- Triceps -->
  <g id="triceps">
    <ellipse cx="55" cy="100" rx="8" ry="25" fill="transparent" stroke="transparent"/>
    <ellipse cx="145" cy="100" rx="8" ry="25" fill="transparent" stroke="transparent"/>
  </g>
  
  <!-- Forearms -->
  <g id="forearms">
    <ellipse cx="50" cy="140" rx="6" ry="30" fill="transparent" stroke="transparent"/>
    <ellipse cx="150" cy="140" rx="6" ry="30" fill="transparent" stroke="transparent"/>
  </g>
  
  <!-- Glutes -->
  <g id="glutes">
    <ellipse cx="100" cy="180" rx="35" ry="25" fill="transparent" stroke="transparent"/>
  </g>
  
  <!-- Hamstrings -->
  <g id="hamstrings">
    <ellipse cx="80" cy="240" rx="12" ry="35" fill="transparent" stroke="transparent"/>
    <ellipse cx="120" cy="240" rx="12" ry="35" fill="transparent" stroke="transparent"/>
  </g>
  
  <!-- Calves -->
  <g id="calves">
    <ellipse cx="82" cy="340" rx="8" ry="30" fill="transparent" stroke="transparent"/>
    <ellipse cx="118" cy="340" rx="8" ry="30" fill="transparent" stroke="transparent"/>
  </g>
</svg>