<?xml version="1.0" encoding="UTF-8"?>
<svg width="200" height="400" viewBox="0 0 200 400" xmlns="http://www.w3.org/2000/svg">
  <!-- Body outline -->
  <path d="M100 20 C85 20, 70 35, 70 50 
           L70 70 L65 90 L60 110 L65 130 L70 150 
           L70 200 L75 250 L80 300 L85 340 L90 380 
           L110 380 L115 340 L120 300 L125 250 L130 200 
           L130 150 L135 130 L140 110 L135 90 L130 70 
           L130 50 C130 35, 115 20, 100 20 Z" 
        fill="#f8f9fa" stroke="#dee2e6" stroke-width="1"/>
  
  <!-- Head -->
  <circle cx="100" cy="35" r="15" fill="#f8f9fa" stroke="#dee2e6" stroke-width="1"/>
  
  <!-- Chest -->
  <g id="chest">
    <path d="M75 55 C75 55, 85 50, 100 52 C115 50, 125 55, 125 55
             C125 70, 120 85, 100 90 C80 85, 75 70, 75 55 Z" 
          fill="transparent" stroke="transparent"/>
  </g>
  
  <!-- Shoulders -->
  <g id="shoulders">
    <ellipse cx="60" cy="65" rx="15" ry="20" fill="transparent" stroke="transparent"/>
    <ellipse cx="140" cy="65" rx="15" ry="20" fill="transparent" stroke="transparent"/>
  </g>
  
  <!-- Biceps -->
  <g id="biceps">
    <ellipse cx="55" cy="100" rx="8" ry="25" fill="transparent" stroke="transparent"/>
    <ellipse cx="145" cy="100" rx="8" ry="25" fill="transparent" stroke="transparent"/>
  </g>
  
  <!-- Forearms -->
  <g id="forearms">
    <ellipse cx="50" cy="140" rx="6" ry="30" fill="transparent" stroke="transparent"/>
    <ellipse cx="150" cy="140" rx="6" ry="30" fill="transparent" stroke="transparent"/>
  </g>
  
  <!-- Abs -->
  <g id="abs">
    <rect x="85" y="95" width="30" height="80" rx="5" fill="transparent" stroke="transparent"/>
  </g>
  
  <!-- Quadriceps -->
  <g id="quadriceps">
    <ellipse cx="80" cy="220" rx="12" ry="40" fill="transparent" stroke="transparent"/>
    <ellipse cx="120" cy="220" rx="12" ry="40" fill="transparent" stroke="transparent"/>
  </g>
  
  <!-- Calves -->
  <g id="calves">
    <ellipse cx="82" cy="340" rx="8" ry="30" fill="transparent" stroke="transparent"/>
    <ellipse cx="118" cy="340" rx="8" ry="30" fill="transparent" stroke="transparent"/>
  </g>
</svg>